<mxfile host="app.diagrams.net" modified="2023-03-04T13:42:25.544Z" agent="5.0 (Windows)" etag="xccTHLgYhfhzguR1ciYz" version="21.0.2" type="github">
  <diagram name="Page-1" id="ftNd-YgC9ZWd_KhuzdhC">
    <mxGraphModel dx="1222" dy="-196" grid="1" gridSize="10" guides="1" tooltips="1" connect="1" arrows="1" fold="1" page="1" pageScale="1" pageWidth="1169" pageHeight="827" math="0" shadow="0">
      <root>
        <mxCell id="0" />
        <mxCell id="1" parent="0" />
        <mxCell id="zlxw7EzZlGF5oyyQFBYH-38" style="edgeStyle=none;rounded=0;orthogonalLoop=1;jettySize=auto;html=1;endArrow=block;endFill=0;" parent="1" target="tYOuKYM6x3wthSHOWYr8-2" edge="1">
          <mxGeometry relative="1" as="geometry">
            <Array as="points">
              <mxPoint x="160" y="895" />
              <mxPoint x="390" y="895" />
            </Array>
            <mxPoint x="60" y="1130" as="sourcePoint" />
          </mxGeometry>
        </mxCell>
        <mxCell id="zlxw7EzZlGF5oyyQFBYH-39" style="edgeStyle=none;rounded=0;orthogonalLoop=1;jettySize=auto;html=1;entryX=0;entryY=0.5;entryDx=0;entryDy=0;endArrow=block;endFill=0;" parent="1" target="tYOuKYM6x3wthSHOWYr8-25" edge="1">
          <mxGeometry relative="1" as="geometry">
            <Array as="points">
              <mxPoint x="220" y="1025" />
            </Array>
            <mxPoint x="100" y="1170" as="sourcePoint" />
          </mxGeometry>
        </mxCell>
        <mxCell id="zlxw7EzZlGF5oyyQFBYH-40" style="edgeStyle=none;rounded=0;orthogonalLoop=1;jettySize=auto;html=1;entryX=0;entryY=0.5;entryDx=0;entryDy=0;endArrow=block;endFill=0;" parent="1" source="tYOuKYM6x3wthSHOWYr8-1" target="zlxw7EzZlGF5oyyQFBYH-5" edge="1">
          <mxGeometry relative="1" as="geometry">
            <mxPoint x="110" y="1210" as="sourcePoint" />
            <Array as="points">
              <mxPoint x="150" y="1210" />
            </Array>
          </mxGeometry>
        </mxCell>
        <mxCell id="zlxw7EzZlGF5oyyQFBYH-41" style="edgeStyle=none;rounded=0;orthogonalLoop=1;jettySize=auto;html=1;entryX=0;entryY=0;entryDx=0;entryDy=0;endArrow=block;endFill=0;" parent="1" source="tYOuKYM6x3wthSHOWYr8-1" target="tYOuKYM6x3wthSHOWYr8-19" edge="1">
          <mxGeometry relative="1" as="geometry">
            <Array as="points">
              <mxPoint x="250" y="1370" />
            </Array>
          </mxGeometry>
        </mxCell>
        <mxCell id="tYOuKYM6x3wthSHOWYr8-1" value="Client" style="html=1;overflow=block;blockSpacing=1;shape=umlActor;labelPosition=center;verticalLabelPosition=bottom;verticalAlign=top;whiteSpace=nowrap;fontSize=16.7;fontColor=#333333;align=center;spacing=0;strokeColor=#5e5e5e;strokeOpacity=100;rounded=1;absoluteArcSize=1;arcSize=9;strokeWidth=2.3;lucidId=Zoit8c.qYpQ7;" parent="1" vertex="1">
          <mxGeometry x="30" y="1142.5" width="60" height="135" as="geometry" />
        </mxCell>
        <mxCell id="tYOuKYM6x3wthSHOWYr8-2" value="Gerer le profil" style="html=1;overflow=block;blockSpacing=1;whiteSpace=wrap;ellipse;fontSize=13;spacing=3.8;strokeColor=#6c8ebf;strokeOpacity=100;rounded=1;absoluteArcSize=1;arcSize=9;strokeWidth=1;lucidId=3sitsereLQRn;fillColor=#dae8fc;" parent="1" vertex="1">
          <mxGeometry x="445" y="870" width="120" height="50" as="geometry" />
        </mxCell>
        <mxCell id="zlxw7EzZlGF5oyyQFBYH-35" style="edgeStyle=none;rounded=0;orthogonalLoop=1;jettySize=auto;html=1;exitX=0.5;exitY=0;exitDx=0;exitDy=0;entryX=0.213;entryY=0.97;entryDx=0;entryDy=0;entryPerimeter=0;endArrow=block;endFill=0;" parent="1" source="tYOuKYM6x3wthSHOWYr8-7" target="tYOuKYM6x3wthSHOWYr8-19" edge="1">
          <mxGeometry relative="1" as="geometry" />
        </mxCell>
        <mxCell id="tYOuKYM6x3wthSHOWYr8-7" value="Ajouter un ami &#39;abonner&#39;" style="html=1;overflow=block;blockSpacing=1;whiteSpace=wrap;ellipse;fontSize=13;spacing=3.8;strokeColor=#5e5e5e;strokeOpacity=100;rounded=1;absoluteArcSize=1;arcSize=9;strokeWidth=2.3;lucidId=yuiteOMJiaQA;" parent="1" vertex="1">
          <mxGeometry x="335" y="1430" width="150" height="30" as="geometry" />
        </mxCell>
        <mxCell id="zlxw7EzZlGF5oyyQFBYH-32" style="edgeStyle=none;rounded=0;orthogonalLoop=1;jettySize=auto;html=1;exitX=1;exitY=0.5;exitDx=0;exitDy=0;entryX=0.039;entryY=0.667;entryDx=0;entryDy=0;entryPerimeter=0;endArrow=block;endFill=0;" parent="1" source="tYOuKYM6x3wthSHOWYr8-9" target="tYOuKYM6x3wthSHOWYr8-19" edge="1">
          <mxGeometry relative="1" as="geometry" />
        </mxCell>
        <mxCell id="tYOuKYM6x3wthSHOWYr8-9" value="Supprimer un ami" style="html=1;overflow=block;blockSpacing=1;whiteSpace=wrap;ellipse;fontSize=13;spacing=3.8;strokeColor=#5e5e5e;strokeOpacity=100;rounded=1;absoluteArcSize=1;arcSize=9;strokeWidth=2.3;lucidId=Juitxt.MBrJM;" parent="1" vertex="1">
          <mxGeometry x="251.25" y="1395" width="120" height="30" as="geometry" />
        </mxCell>
        <mxCell id="zlxw7EzZlGF5oyyQFBYH-36" style="edgeStyle=none;rounded=0;orthogonalLoop=1;jettySize=auto;html=1;exitX=0.5;exitY=0;exitDx=0;exitDy=0;entryX=0.763;entryY=0.939;entryDx=0;entryDy=0;entryPerimeter=0;endArrow=block;endFill=0;" parent="1" source="tYOuKYM6x3wthSHOWYr8-11" target="tYOuKYM6x3wthSHOWYr8-19" edge="1">
          <mxGeometry relative="1" as="geometry" />
        </mxCell>
        <mxCell id="tYOuKYM6x3wthSHOWYr8-11" value="Chercher des utilisateur" style="html=1;overflow=block;blockSpacing=1;whiteSpace=wrap;ellipse;fontSize=13;spacing=3.8;strokeColor=#5e5e5e;strokeOpacity=100;rounded=1;absoluteArcSize=1;arcSize=9;strokeWidth=2.3;lucidId=SuitE4AoL12q;" parent="1" vertex="1">
          <mxGeometry x="506.13" y="1430" width="150" height="30" as="geometry" />
        </mxCell>
        <mxCell id="tYOuKYM6x3wthSHOWYr8-42" style="rounded=0;orthogonalLoop=1;jettySize=auto;html=1;entryX=0.5;entryY=1;entryDx=0;entryDy=0;endArrow=block;endFill=0;" parent="1" source="tYOuKYM6x3wthSHOWYr8-13" target="tYOuKYM6x3wthSHOWYr8-2" edge="1">
          <mxGeometry relative="1" as="geometry" />
        </mxCell>
        <mxCell id="tYOuKYM6x3wthSHOWYr8-13" value="Modifier le profil" style="ellipse;whiteSpace=wrap;html=1;" parent="1" vertex="1">
          <mxGeometry x="444.88" y="950" width="120" height="30" as="geometry" />
        </mxCell>
        <mxCell id="tYOuKYM6x3wthSHOWYr8-14" value="Reserver un evenement" style="ellipse;whiteSpace=wrap;html=1;" parent="1" vertex="1">
          <mxGeometry x="582.38" y="1120" width="120" height="40" as="geometry" />
        </mxCell>
        <mxCell id="tYOuKYM6x3wthSHOWYr8-16" value="Remboursement " style="ellipse;whiteSpace=wrap;html=1;" parent="1" vertex="1">
          <mxGeometry x="445.63" y="1142.5" width="130" height="30" as="geometry" />
        </mxCell>
        <mxCell id="tYOuKYM6x3wthSHOWYr8-18" value="Télécharger code QR" style="ellipse;whiteSpace=wrap;html=1;" parent="1" vertex="1">
          <mxGeometry x="702.38" y="1160" width="129.5" height="25" as="geometry" />
        </mxCell>
        <mxCell id="tYOuKYM6x3wthSHOWYr8-19" value="Gerer la liste des utilisateur" style="ellipse;whiteSpace=wrap;html=1;fillColor=#dae8fc;strokeColor=#6c8ebf;" parent="1" vertex="1">
          <mxGeometry x="403.75" y="1380" width="193.5" height="30" as="geometry" />
        </mxCell>
        <mxCell id="tYOuKYM6x3wthSHOWYr8-20" value="S&#39;authentifier" style="html=1;overflow=block;blockSpacing=1;whiteSpace=wrap;ellipse;fontSize=13;spacing=3.8;strokeColor=#5e5e5e;strokeOpacity=100;rounded=1;absoluteArcSize=1;arcSize=9;strokeWidth=2.3;lucidId=XvitAHHM73nt;" parent="1" vertex="1">
          <mxGeometry x="960.5" y="1230" width="120" height="37.5" as="geometry" />
        </mxCell>
        <mxCell id="tYOuKYM6x3wthSHOWYr8-22" value="Deconnecter" style="html=1;overflow=block;blockSpacing=1;whiteSpace=wrap;ellipse;fontSize=13;spacing=3.8;strokeColor=#5e5e5e;strokeOpacity=100;rounded=1;absoluteArcSize=1;arcSize=9;strokeWidth=2.3;lucidId=XvitmW9DInrr;" parent="1" vertex="1">
          <mxGeometry x="1030" y="1322.5" width="120" height="37.5" as="geometry" />
        </mxCell>
        <mxCell id="tYOuKYM6x3wthSHOWYr8-24" value="Supprimer le profil" style="html=1;overflow=block;blockSpacing=1;whiteSpace=wrap;ellipse;fontSize=13;spacing=3.8;strokeColor=#121212;strokeOpacity=100;rounded=1;absoluteArcSize=1;arcSize=9;strokeWidth=1;lucidId=jtitNFk_JNwB;" parent="1" vertex="1">
          <mxGeometry x="295.75" y="940" width="120" height="30" as="geometry" />
        </mxCell>
        <mxCell id="tYOuKYM6x3wthSHOWYr8-25" value="Consulter la liste des évenements" style="ellipse;whiteSpace=wrap;html=1;fillColor=#dae8fc;strokeColor=#6c8ebf;" parent="1" vertex="1">
          <mxGeometry x="430.94" y="1000" width="159.37" height="50" as="geometry" />
        </mxCell>
        <mxCell id="tYOuKYM6x3wthSHOWYr8-27" value="discuter avec l&#39;oganizateur pour feedback / réclamation" style="ellipse;whiteSpace=wrap;html=1;" parent="1" vertex="1">
          <mxGeometry x="612.25" y="1069" width="197.75" height="40" as="geometry" />
        </mxCell>
        <mxCell id="tYOuKYM6x3wthSHOWYr8-28" value="Transfer Ticket pour un ami" style="ellipse;whiteSpace=wrap;html=1;" parent="1" vertex="1">
          <mxGeometry x="565" y="1185" width="160" height="31.25" as="geometry" />
        </mxCell>
        <mxCell id="tYOuKYM6x3wthSHOWYr8-30" value="Partager un évenement" style="ellipse;whiteSpace=wrap;html=1;" parent="1" vertex="1">
          <mxGeometry x="268.5" y="1076.5" width="140" height="25" as="geometry" />
        </mxCell>
        <mxCell id="tYOuKYM6x3wthSHOWYr8-32" value="Consulter un détail d&#39;un evenement" style="ellipse;whiteSpace=wrap;html=1;" parent="1" vertex="1">
          <mxGeometry x="445.63" y="1069" width="147.75" height="40" as="geometry" />
        </mxCell>
        <mxCell id="tYOuKYM6x3wthSHOWYr8-35" value="Consulter mes achats" style="ellipse;whiteSpace=wrap;html=1;" parent="1" vertex="1">
          <mxGeometry x="600.5" y="940" width="130" height="30" as="geometry" />
        </mxCell>
        <mxCell id="tYOuKYM6x3wthSHOWYr8-39" value="" style="endArrow=none;html=1;rounded=0;exitX=1;exitY=0.5;exitDx=0;exitDy=0;entryX=0;entryY=0.5;entryDx=0;entryDy=0;" parent="1" source="tYOuKYM6x3wthSHOWYr8-24" target="tYOuKYM6x3wthSHOWYr8-35" edge="1">
          <mxGeometry width="50" height="50" relative="1" as="geometry">
            <mxPoint x="422.1200000000001" y="930.2300000000002" as="sourcePoint" />
            <mxPoint x="465" y="930" as="targetPoint" />
            <Array as="points">
              <mxPoint x="440" y="940" />
              <mxPoint x="580" y="940" />
            </Array>
          </mxGeometry>
        </mxCell>
        <mxCell id="zlxw7EzZlGF5oyyQFBYH-34" style="edgeStyle=none;rounded=0;orthogonalLoop=1;jettySize=auto;html=1;entryX=1;entryY=0.5;entryDx=0;entryDy=0;endArrow=block;endFill=0;" parent="1" source="tYOuKYM6x3wthSHOWYr8-114" target="tYOuKYM6x3wthSHOWYr8-19" edge="1">
          <mxGeometry relative="1" as="geometry" />
        </mxCell>
        <mxCell id="tYOuKYM6x3wthSHOWYr8-114" value="Accepter un utlisateur" style="ellipse;whiteSpace=wrap;html=1;" parent="1" vertex="1">
          <mxGeometry x="636.13" y="1395" width="128.87" height="30" as="geometry" />
        </mxCell>
        <mxCell id="zlxw7EzZlGF5oyyQFBYH-4" value="Consulter profil" style="ellipse;whiteSpace=wrap;html=1;" parent="1" vertex="1">
          <mxGeometry x="526.13" y="1480" width="110" height="30" as="geometry" />
        </mxCell>
        <mxCell id="zlxw7EzZlGF5oyyQFBYH-5" value="Gerer panier" style="ellipse;whiteSpace=wrap;html=1;fillColor=#dae8fc;strokeColor=#6c8ebf;" parent="1" vertex="1">
          <mxGeometry x="452.25" y="1230" width="137" height="30" as="geometry" />
        </mxCell>
        <mxCell id="zlxw7EzZlGF5oyyQFBYH-22" style="edgeStyle=none;rounded=0;orthogonalLoop=1;jettySize=auto;html=1;entryX=1;entryY=1;entryDx=0;entryDy=0;endArrow=block;endFill=0;" parent="1" source="zlxw7EzZlGF5oyyQFBYH-6" target="zlxw7EzZlGF5oyyQFBYH-5" edge="1">
          <mxGeometry relative="1" as="geometry" />
        </mxCell>
        <mxCell id="zlxw7EzZlGF5oyyQFBYH-6" value="Consulter Listes de Favoris " style="html=1;overflow=block;blockSpacing=1;whiteSpace=wrap;ellipse;fontSize=13;spacing=3.8;strokeColor=#5e5e5e;strokeOpacity=100;rounded=1;absoluteArcSize=1;arcSize=9;strokeWidth=2.3;lucidId=atit3Y5sFF7p;" parent="1" vertex="1">
          <mxGeometry x="589.25" y="1270" width="171.75" height="30" as="geometry" />
        </mxCell>
        <mxCell id="zlxw7EzZlGF5oyyQFBYH-8" value="Supprimer de la liste de favoris" style="html=1;overflow=block;blockSpacing=1;whiteSpace=wrap;ellipse;fontSize=13;spacing=3.8;strokeColor=#5e5e5e;strokeOpacity=100;rounded=1;absoluteArcSize=1;arcSize=9;strokeWidth=2.3;lucidId=atit3Y5sFF7p;" parent="1" vertex="1">
          <mxGeometry x="535.75" y="1322.5" width="202.25" height="30" as="geometry" />
        </mxCell>
        <mxCell id="zlxw7EzZlGF5oyyQFBYH-23" style="edgeStyle=none;rounded=0;orthogonalLoop=1;jettySize=auto;html=1;entryX=0.197;entryY=1;entryDx=0;entryDy=0;entryPerimeter=0;endArrow=block;endFill=0;" parent="1" source="zlxw7EzZlGF5oyyQFBYH-11" target="zlxw7EzZlGF5oyyQFBYH-5" edge="1">
          <mxGeometry relative="1" as="geometry" />
        </mxCell>
        <mxCell id="zlxw7EzZlGF5oyyQFBYH-11" value="Consulter liste des evenement reserver" style="ellipse;whiteSpace=wrap;html=1;" parent="1" vertex="1">
          <mxGeometry x="249" y="1270" width="231.5" height="30" as="geometry" />
        </mxCell>
        <mxCell id="zlxw7EzZlGF5oyyQFBYH-12" value="ajouter aux favoris" style="ellipse;whiteSpace=wrap;html=1;" parent="1" vertex="1">
          <mxGeometry x="306.5" y="1115" width="120" height="30" as="geometry" />
        </mxCell>
        <mxCell id="zlxw7EzZlGF5oyyQFBYH-13" value="&amp;lt;&amp;lt;extend&amp;gt;&amp;gt;" style="html=1;verticalAlign=bottom;labelBackgroundColor=none;endArrow=open;endFill=0;dashed=1;rounded=0;entryX=0.5;entryY=1;entryDx=0;entryDy=0;exitX=0.5;exitY=0;exitDx=0;exitDy=0;" parent="1" source="tYOuKYM6x3wthSHOWYr8-32" target="tYOuKYM6x3wthSHOWYr8-25" edge="1">
          <mxGeometry x="-1" y="-30" width="160" relative="1" as="geometry">
            <mxPoint x="480" y="1160" as="sourcePoint" />
            <mxPoint x="640" y="1160" as="targetPoint" />
            <mxPoint x="1" y="3" as="offset" />
          </mxGeometry>
        </mxCell>
        <mxCell id="zlxw7EzZlGF5oyyQFBYH-14" value="&amp;lt;&amp;lt;extend&amp;gt;&amp;gt;" style="html=1;verticalAlign=bottom;labelBackgroundColor=none;endArrow=open;endFill=0;dashed=1;rounded=0;exitX=1;exitY=0.5;exitDx=0;exitDy=0;entryX=0;entryY=0.5;entryDx=0;entryDy=0;" parent="1" source="tYOuKYM6x3wthSHOWYr8-30" target="tYOuKYM6x3wthSHOWYr8-32" edge="1">
          <mxGeometry x="-0.3806" y="9" width="160" relative="1" as="geometry">
            <mxPoint x="440" y="1130" as="sourcePoint" />
            <mxPoint x="600" y="1130" as="targetPoint" />
            <mxPoint as="offset" />
          </mxGeometry>
        </mxCell>
        <mxCell id="zlxw7EzZlGF5oyyQFBYH-15" value="&amp;lt;&amp;lt;extend&amp;gt;&amp;gt;" style="html=1;verticalAlign=bottom;labelBackgroundColor=none;endArrow=open;endFill=0;dashed=1;rounded=0;entryX=1;entryY=1;entryDx=0;entryDy=0;exitX=0.238;exitY=0.043;exitDx=0;exitDy=0;exitPerimeter=0;" parent="1" source="tYOuKYM6x3wthSHOWYr8-14" target="tYOuKYM6x3wthSHOWYr8-32" edge="1">
          <mxGeometry x="-0.9662" y="-2" width="160" relative="1" as="geometry">
            <mxPoint x="500" y="1140" as="sourcePoint" />
            <mxPoint x="660" y="1140" as="targetPoint" />
            <mxPoint as="offset" />
          </mxGeometry>
        </mxCell>
        <mxCell id="zlxw7EzZlGF5oyyQFBYH-16" value="&amp;lt;&amp;lt;extend&amp;gt;&amp;gt;" style="html=1;verticalAlign=bottom;labelBackgroundColor=none;endArrow=open;endFill=0;dashed=1;rounded=0;exitX=0.895;exitY=0.176;exitDx=0;exitDy=0;exitPerimeter=0;entryX=0;entryY=1;entryDx=0;entryDy=0;" parent="1" source="zlxw7EzZlGF5oyyQFBYH-12" target="tYOuKYM6x3wthSHOWYr8-32" edge="1">
          <mxGeometry x="-0.6815" y="8" width="160" relative="1" as="geometry">
            <mxPoint x="500" y="1140" as="sourcePoint" />
            <mxPoint x="660" y="1140" as="targetPoint" />
            <mxPoint as="offset" />
          </mxGeometry>
        </mxCell>
        <mxCell id="zlxw7EzZlGF5oyyQFBYH-17" value="&amp;lt;&amp;lt;include&amp;gt;&amp;gt;" style="html=1;verticalAlign=bottom;labelBackgroundColor=none;endArrow=open;endFill=0;dashed=1;rounded=0;entryX=0;entryY=1;entryDx=0;entryDy=0;exitX=0.71;exitY=0.105;exitDx=0;exitDy=0;exitPerimeter=0;" parent="1" source="zlxw7EzZlGF5oyyQFBYH-5" target="tYOuKYM6x3wthSHOWYr8-14" edge="1">
          <mxGeometry x="-0.9956" y="-20" width="160" relative="1" as="geometry">
            <mxPoint x="530" y="1260" as="sourcePoint" />
            <mxPoint x="690" y="1260" as="targetPoint" />
            <Array as="points">
              <mxPoint x="550" y="1190" />
            </Array>
            <mxPoint as="offset" />
          </mxGeometry>
        </mxCell>
        <mxCell id="zlxw7EzZlGF5oyyQFBYH-18" value="&amp;lt;&amp;lt;include&amp;gt;&amp;gt;" style="html=1;verticalAlign=bottom;labelBackgroundColor=none;endArrow=open;endFill=0;dashed=1;rounded=0;entryX=0.696;entryY=0.833;entryDx=0;entryDy=0;entryPerimeter=0;exitX=0;exitY=0;exitDx=0;exitDy=0;" parent="1" source="zlxw7EzZlGF5oyyQFBYH-5" target="zlxw7EzZlGF5oyyQFBYH-12" edge="1">
          <mxGeometry x="-0.2253" y="-16" width="160" relative="1" as="geometry">
            <mxPoint x="530" y="1260" as="sourcePoint" />
            <mxPoint x="690" y="1260" as="targetPoint" />
            <mxPoint as="offset" />
          </mxGeometry>
        </mxCell>
        <mxCell id="zlxw7EzZlGF5oyyQFBYH-19" value="&amp;lt;&amp;lt;extend&amp;gt;&amp;gt;" style="edgeStyle=none;html=1;startArrow=open;endArrow=none;startSize=12;verticalAlign=bottom;dashed=1;labelBackgroundColor=none;rounded=0;exitX=0.946;exitY=0.23;exitDx=0;exitDy=0;exitPerimeter=0;entryX=0;entryY=0;entryDx=0;entryDy=0;" parent="1" source="tYOuKYM6x3wthSHOWYr8-32" target="tYOuKYM6x3wthSHOWYr8-27" edge="1">
          <mxGeometry width="160" relative="1" as="geometry">
            <mxPoint x="605" y="1050" as="sourcePoint" />
            <mxPoint x="765" y="1050" as="targetPoint" />
          </mxGeometry>
        </mxCell>
        <mxCell id="zlxw7EzZlGF5oyyQFBYH-21" value="Remboursement " style="ellipse;whiteSpace=wrap;html=1;" parent="1" vertex="1">
          <mxGeometry x="295.75" y="1322.5" width="130" height="30" as="geometry" />
        </mxCell>
        <mxCell id="zlxw7EzZlGF5oyyQFBYH-24" value="&amp;lt;&amp;lt;extend&amp;gt;&amp;gt;" style="html=1;verticalAlign=bottom;labelBackgroundColor=none;endArrow=open;endFill=0;dashed=1;rounded=0;exitX=0.5;exitY=0;exitDx=0;exitDy=0;entryX=0.5;entryY=1;entryDx=0;entryDy=0;" parent="1" source="zlxw7EzZlGF5oyyQFBYH-21" target="zlxw7EzZlGF5oyyQFBYH-11" edge="1">
          <mxGeometry x="-0.348" y="-28" width="160" relative="1" as="geometry">
            <mxPoint x="329.0200000000001" y="1317.1200000000001" as="sourcePoint" />
            <mxPoint x="382.4720619709291" y="1300.0049955140687" as="targetPoint" />
            <mxPoint as="offset" />
          </mxGeometry>
        </mxCell>
        <mxCell id="zlxw7EzZlGF5oyyQFBYH-25" value="&amp;lt;&amp;lt;extend&amp;gt;&amp;gt;" style="edgeStyle=none;html=1;startArrow=open;endArrow=none;startSize=12;verticalAlign=bottom;dashed=1;labelBackgroundColor=none;rounded=0;exitX=0.926;exitY=0.192;exitDx=0;exitDy=0;exitPerimeter=0;entryX=1;entryY=0;entryDx=0;entryDy=0;" parent="1" source="zlxw7EzZlGF5oyyQFBYH-6" target="tYOuKYM6x3wthSHOWYr8-32" edge="1">
          <mxGeometry x="0.5246" width="160" relative="1" as="geometry">
            <mxPoint x="690" y="1200" as="sourcePoint" />
            <mxPoint x="850" y="1200" as="targetPoint" />
            <Array as="points">
              <mxPoint x="830" y="1270" />
              <mxPoint x="880" y="1170" />
              <mxPoint x="800" y="1030" />
              <mxPoint x="640" y="1030" />
            </Array>
            <mxPoint as="offset" />
          </mxGeometry>
        </mxCell>
        <mxCell id="zlxw7EzZlGF5oyyQFBYH-26" value="&amp;lt;&amp;lt;extend&amp;gt;&amp;gt;" style="html=1;verticalAlign=bottom;labelBackgroundColor=none;endArrow=open;endFill=0;dashed=1;rounded=0;exitX=0.5;exitY=0;exitDx=0;exitDy=0;entryX=0.291;entryY=1.007;entryDx=0;entryDy=0;entryPerimeter=0;" parent="1" source="zlxw7EzZlGF5oyyQFBYH-8" target="zlxw7EzZlGF5oyyQFBYH-6" edge="1">
          <mxGeometry x="-1" y="38" width="160" relative="1" as="geometry">
            <mxPoint x="679.25" y="1310" as="sourcePoint" />
            <mxPoint x="839.25" y="1310" as="targetPoint" />
            <mxPoint y="1" as="offset" />
          </mxGeometry>
        </mxCell>
        <mxCell id="zlxw7EzZlGF5oyyQFBYH-29" value="&amp;lt;&amp;lt;extend&amp;gt;&amp;gt;" style="html=1;verticalAlign=bottom;labelBackgroundColor=none;endArrow=open;endFill=0;dashed=1;rounded=0;entryX=0;entryY=0.5;entryDx=0;entryDy=0;exitX=0.673;exitY=0.037;exitDx=0;exitDy=0;exitPerimeter=0;" parent="1" source="tYOuKYM6x3wthSHOWYr8-16" target="tYOuKYM6x3wthSHOWYr8-14" edge="1">
          <mxGeometry x="-0.7222" y="-1" width="160" relative="1" as="geometry">
            <mxPoint x="490" y="1200" as="sourcePoint" />
            <mxPoint x="650" y="1200" as="targetPoint" />
            <mxPoint as="offset" />
          </mxGeometry>
        </mxCell>
        <mxCell id="zlxw7EzZlGF5oyyQFBYH-30" value="&amp;lt;&amp;lt;extend&amp;gt;&amp;gt;" style="html=1;verticalAlign=bottom;labelBackgroundColor=none;endArrow=open;endFill=0;dashed=1;rounded=0;entryX=0.5;entryY=1;entryDx=0;entryDy=0;exitX=0.5;exitY=0;exitDx=0;exitDy=0;" parent="1" source="tYOuKYM6x3wthSHOWYr8-28" target="tYOuKYM6x3wthSHOWYr8-14" edge="1">
          <mxGeometry x="-1" y="-25" width="160" relative="1" as="geometry">
            <mxPoint x="490" y="1200" as="sourcePoint" />
            <mxPoint x="650" y="1200" as="targetPoint" />
            <mxPoint y="8" as="offset" />
          </mxGeometry>
        </mxCell>
        <mxCell id="zlxw7EzZlGF5oyyQFBYH-31" value="&amp;lt;&amp;lt;extend&amp;gt;&amp;gt;" style="html=1;verticalAlign=bottom;labelBackgroundColor=none;endArrow=open;endFill=0;dashed=1;rounded=0;entryX=1;entryY=0.5;entryDx=0;entryDy=0;exitX=0.248;exitY=0.02;exitDx=0;exitDy=0;exitPerimeter=0;" parent="1" source="tYOuKYM6x3wthSHOWYr8-18" target="tYOuKYM6x3wthSHOWYr8-14" edge="1">
          <mxGeometry x="-0.9371" width="160" relative="1" as="geometry">
            <mxPoint x="490" y="1200" as="sourcePoint" />
            <mxPoint x="650" y="1200" as="targetPoint" />
            <mxPoint as="offset" />
          </mxGeometry>
        </mxCell>
        <mxCell id="zlxw7EzZlGF5oyyQFBYH-37" value="&amp;lt;&amp;lt;extend&amp;gt;&amp;gt;" style="html=1;verticalAlign=bottom;labelBackgroundColor=none;endArrow=open;endFill=0;dashed=1;rounded=0;exitX=0.5;exitY=0;exitDx=0;exitDy=0;entryX=0.5;entryY=1;entryDx=0;entryDy=0;" parent="1" source="zlxw7EzZlGF5oyyQFBYH-4" target="tYOuKYM6x3wthSHOWYr8-11" edge="1">
          <mxGeometry x="-1" y="-34" width="160" relative="1" as="geometry">
            <mxPoint x="475" y="1430" as="sourcePoint" />
            <mxPoint x="635" y="1430" as="targetPoint" />
            <mxPoint as="offset" />
          </mxGeometry>
        </mxCell>
        <mxCell id="zlxw7EzZlGF5oyyQFBYH-43" value="&amp;lt;&amp;lt;include&amp;gt;&amp;gt;" style="html=1;verticalAlign=bottom;labelBackgroundColor=none;endArrow=open;endFill=0;dashed=1;rounded=0;exitX=1;exitY=0.5;exitDx=0;exitDy=0;entryX=0.704;entryY=0.044;entryDx=0;entryDy=0;entryPerimeter=0;" parent="1" source="tYOuKYM6x3wthSHOWYr8-2" target="tYOuKYM6x3wthSHOWYr8-20" edge="1">
          <mxGeometry width="160" relative="1" as="geometry">
            <mxPoint x="720" y="1100" as="sourcePoint" />
            <mxPoint x="880" y="1100" as="targetPoint" />
            <Array as="points">
              <mxPoint x="1045" y="895" />
            </Array>
          </mxGeometry>
        </mxCell>
        <mxCell id="zlxw7EzZlGF5oyyQFBYH-44" value="&amp;lt;&amp;lt;include&amp;gt;&amp;gt;" style="html=1;verticalAlign=bottom;labelBackgroundColor=none;endArrow=open;endFill=0;dashed=1;rounded=0;exitX=1;exitY=0;exitDx=0;exitDy=0;entryX=0;entryY=1;entryDx=0;entryDy=0;" parent="1" source="tYOuKYM6x3wthSHOWYr8-19" target="tYOuKYM6x3wthSHOWYr8-20" edge="1">
          <mxGeometry x="-0.1944" y="5" width="160" relative="1" as="geometry">
            <mxPoint x="830" y="1380" as="sourcePoint" />
            <mxPoint x="990" y="1380" as="targetPoint" />
            <Array as="points">
              <mxPoint x="800" y="1385" />
            </Array>
            <mxPoint as="offset" />
          </mxGeometry>
        </mxCell>
        <mxCell id="zlxw7EzZlGF5oyyQFBYH-45" value="&amp;lt;&amp;lt;include&amp;gt;&amp;gt;" style="html=1;verticalAlign=bottom;labelBackgroundColor=none;endArrow=open;endFill=0;dashed=1;rounded=0;exitX=1;exitY=0.5;exitDx=0;exitDy=0;entryX=0.5;entryY=0;entryDx=0;entryDy=0;" parent="1" source="tYOuKYM6x3wthSHOWYr8-25" target="tYOuKYM6x3wthSHOWYr8-20" edge="1">
          <mxGeometry width="160" relative="1" as="geometry">
            <mxPoint x="720" y="1100" as="sourcePoint" />
            <mxPoint x="880" y="1100" as="targetPoint" />
            <Array as="points">
              <mxPoint x="610" y="1007" />
              <mxPoint x="990" y="1007" />
            </Array>
          </mxGeometry>
        </mxCell>
        <mxCell id="zlxw7EzZlGF5oyyQFBYH-46" value="&amp;lt;&amp;lt;include&amp;gt;&amp;gt;" style="html=1;verticalAlign=bottom;labelBackgroundColor=none;endArrow=open;endFill=0;dashed=1;rounded=0;exitX=1;exitY=0.5;exitDx=0;exitDy=0;entryX=0;entryY=0.5;entryDx=0;entryDy=0;" parent="1" source="zlxw7EzZlGF5oyyQFBYH-5" target="tYOuKYM6x3wthSHOWYr8-20" edge="1">
          <mxGeometry x="-0.296" y="6" width="160" relative="1" as="geometry">
            <mxPoint x="720" y="1220" as="sourcePoint" />
            <mxPoint x="880" y="1220" as="targetPoint" />
            <mxPoint as="offset" />
          </mxGeometry>
        </mxCell>
        <mxCell id="zlxw7EzZlGF5oyyQFBYH-48" value="&amp;lt;&amp;lt;extend&amp;gt;&amp;gt;" style="html=1;verticalAlign=bottom;labelBackgroundColor=none;endArrow=open;endFill=0;dashed=1;rounded=0;entryX=0.5;entryY=0;entryDx=0;entryDy=0;exitX=1;exitY=0.5;exitDx=0;exitDy=0;" parent="1" source="tYOuKYM6x3wthSHOWYr8-20" target="tYOuKYM6x3wthSHOWYr8-22" edge="1">
          <mxGeometry x="0.2018" y="24" width="160" relative="1" as="geometry">
            <mxPoint x="720" y="1280" as="sourcePoint" />
            <mxPoint x="880" y="1280" as="targetPoint" />
            <mxPoint as="offset" />
          </mxGeometry>
        </mxCell>
      </root>
    </mxGraphModel>
  </diagram>
</mxfile>
